<svg width="1200" height="900" viewBox="0 0 1200 900" fill="none" xmlns="http://www.w3.org/2000/svg">
  <rect width="1200" height="900" rx="60" fill="#FEFCFA"/>
  <circle cx="1008" cy="157" r="94" fill="#EEF5FF"/>
  <circle cx="193" cy="154" r="71" fill="#FFF1E6"/>
  <rect x="168" y="217" width="864" height="470" rx="44" fill="#17324D"/>
  <rect x="223" y="279" width="754" height="327" rx="28" fill="#FCFBF8"/>
  <rect x="268" y="327" width="222" height="206" rx="24" fill="#F3F8FF"/>
  <rect x="300" y="365" width="122" height="18" rx="9" fill="#C9DCF7"/>
  <rect x="300" y="402" width="157" height="16" rx="8" fill="#C9DCF7"/>
  <rect x="300" y="438" width="95" height="16" rx="8" fill="#C9DCF7"/>
  <rect x="538" y="327" width="394" height="88" rx="24" fill="#DFF5F0"/>
  <rect x="570" y="355" width="208" height="18" rx="9" fill="#7BCFBE"/>
  <rect x="570" y="387" width="134" height="16" rx="8" fill="#7BCFBE"/>
  <rect x="538" y="440" width="394" height="93" rx="24" fill="#FFF3E8"/>
  <rect x="570" y="470" width="235" height="18" rx="9" fill="#F1CDB8"/>
  <rect x="570" y="502" width="177" height="16" rx="8" fill="#F1CDB8"/>
  <rect x="882" y="689" width="142" height="104" rx="28" fill="white"/>
  <rect x="910" y="718" width="84" height="12" rx="6" fill="#D2E0F6"/>
  <rect x="910" y="745" width="58" height="12" rx="6" fill="#D2E0F6"/>
  <rect x="910" y="772" width="71" height="12" rx="6" fill="#D2E0F6"/>
  <rect x="146" y="661" width="196" height="132" rx="36" fill="white"/>
  <path d="M198 731L226 760L289 694" stroke="#36C1A7" stroke-width="16" stroke-linecap="round" stroke-linejoin="round"/>
  <rect x="403" y="709" width="331" height="62" rx="31" fill="#2F6FE4"/>
  <rect x="444" y="734" width="167" height="12" rx="6" fill="white"/>
  <circle cx="680" cy="740" r="10" fill="white"/>
  <circle cx="717" cy="740" r="10" fill="#8EBCFF"/>
</svg>
